HIERARCHY
ROOT Hips
{
 OFFSET 0.000000 0.000000 0.000000
 CHANNELS 6 Xposition Yposition Zposition Yrotation Xrotation Zrotation
 JOINT Chest
 {
  OFFSET 0.000000 9.588913 -0.003946
  CHANNELS 3 Yrotation Xrotation Zrotation
  JOINT Chest2
  {
   OFFSET 0.000000 9.541882 0.008053
   CHANNELS 3 Yrotation Xrotation Zrotation
   JOINT Chest3
   {
    OFFSET 0.000000 9.501360 0.000000
    CHANNELS 3 Yrotation Xrotation Zrotation
    JOINT Chest4
    {
     OFFSET 0.000000 9.491660 0.000000
     CHANNELS 3 Yrotation Xrotation Zrotation
     JOINT Neck
     {
      OFFSET 0.000000 14.331917 0.000000
      CHANNELS 3 Yrotation Xrotation Zrotation
      JOINT Head
      {
       OFFSET 0.000000 8.884799 0.017034
       CHANNELS 3 Yrotation Xrotation Zrotation
       End Site
       {
        OFFSET 0.000000 16.896195 0.008993
       }
      }
     }
     JOINT RightCollar
     {
      OFFSET -2.923010 9.499495 0.000000
      CHANNELS 3 Yrotation Xrotation Zrotation
      JOINT RightShoulder
      {
       OFFSET -13.795216 0.000000 0.000000
       CHANNELS 3 Yrotation Xrotation Zrotation
       JOINT RightElbow
       {
        OFFSET -30.272209 0.000000 0.000000
        CHANNELS 3 Yrotation Xrotation Zrotation
        JOINT RightWrist
        {
         OFFSET -24.478199 0.000000 0.000000
         CHANNELS 3 Yrotation Xrotation Zrotation
         End Site
         {
          OFFSET -18.090752 0.000000 0.000000
         }
        }
       }
      }
     }
     JOINT LeftCollar
     {
      OFFSET 2.923010 9.499495 0.000000
      CHANNELS 3 Yrotation Xrotation Zrotation
      JOINT LeftShoulder
      {
       OFFSET 13.795216 0.000000 0.000000
       CHANNELS 3 Yrotation Xrotation Zrotation
       JOINT LeftElbow
       {
        OFFSET 30.272209 0.000000 0.000000
        CHANNELS 3 Yrotation Xrotation Zrotation
        JOINT LeftWrist
        {
         OFFSET 24.478199 0.000000 0.000000
         CHANNELS 3 Yrotation Xrotation Zrotation
         End Site
         {
          OFFSET 18.090752 0.000000 0.000000
         }
        }
       }
      }
     }
    }
   }
  }
 }
 JOINT RightHip
 {
  OFFSET -7.826875 0.019532 0.001973
  CHANNELS 3 Yrotation Xrotation Zrotation
  JOINT RightKnee
  {
   OFFSET 0.000000 -40.546152 -0.001885
   CHANNELS 3 Yrotation Xrotation Zrotation
   JOINT RightAnkle
   {
    OFFSET 0.000000 -39.417092 -0.003189
    CHANNELS 3 Yrotation Xrotation Zrotation
    JOINT RightToe
    {
     OFFSET 0.000000 -7.579396 17.243563
     CHANNELS 3 Yrotation Xrotation Zrotation
     End Site
     {
      OFFSET 0.000000 -1.500329 6.694466
     }
    }
   }
  }
 }
 JOINT LeftHip
 {
  OFFSET 7.826875 0.019532 0.001973
  CHANNELS 3 Yrotation Xrotation Zrotation
  JOINT LeftKnee
  {
   OFFSET 0.000000 -40.546152 -0.001885
   CHANNELS 3 Yrotation Xrotation Zrotation
   JOINT LeftAnkle
   {
    OFFSET 0.000000 -39.417092 -0.003189
    CHANNELS 3 Yrotation Xrotation Zrotation
    JOINT LeftToe
    {
     OFFSET 0.000000 -7.579396 17.243563
     CHANNELS 3 Yrotation Xrotation Zrotation
     End Site
     {
      OFFSET 0.000000 -1.500329 6.694466
     }
    }
   }
  }
 }
}
MOTION
Frames: 16
Frame Time: 0.008333
0.000000 87.345680 0.000000 0.000000 -5.767889 0.000000 0.000000 11.653876 0.000000 0.000000 -5.885988 0.000000 0.000000 -0.000000 0.000000 0.000000 -0.000000 0.000000 0.000000 12.528808 0.000000 0.000000 0.711711 0.000000 0.000000 -0.000000 0.000000 0.000000 -0.000000 0.000000 2.309063 -0.000000 0.000000 -2.309063 -0.000000 -0.000000 0.000000 -0.000000 0.000000 0.000000 0.000000 0.000000 -2.309063 0.000000 0.000000 2.309063 -0.000000 0.000000 0.000000 8.520374 0.000000 0.000000 1.905768 0.000000 -0.000000 -4.658254 0.000000 0.000000 -0.000000 0.000000 0.000000 8.520374 0.000000 0.000000 1.905768 0.000000 -0.000000 -4.658254 0.000000 0.000000 -0.000000 0.000000
14.742064 89.116609 3.363426 177.163770 -7.781787 -1.002890 3.987575 2.877934 0.681927 2.270144 1.646936 0.427073 2.839886 2.055921 0.544071 2.270144 1.646936 0.427073 8.449441 26.576885 -1.067643 9.670531 3.881393 -3.118413 3.365032 3.766772 -1.029843 -8.029663 -4.531277 91.360571 3.298793 5.845881 1.756492 -1.462848 -4.864785 2.043130 -4.910844 1.936154 -0.069629 7.536911 -2.315090 -89.833240 0.413788 -8.489837 -0.942124 -1.175999 -0.986853 -0.072505 -8.137545 10.341095 -0.471630 4.253900 3.627472 -0.125611 7.069545 -5.856237 -0.219263 -0.008329 -0.114338 0.013338 9.849204 9.633309 0.711582 -5.908666 2.072607 -0.772994 -4.411607 -4.021901 1.663198 0.009763 0.122813 -0.022810
14.752189 89.116533 3.367164 177.168516 -7.781280 -0.991212 3.984778 2.872898 0.682958 2.268298 1.644293 0.424780 2.837565 2.052634 0.541181 2.268298 1.644293 0.424780 8.492697 26.563360 -1.056766 9.717495 3.868600 -3.116387 3.352220 3.783256 -1.028069 -8.056517 -4.508868 91.378292 3.244378 5.834501 1.703720 -1.469897 -4.861073 2.043702 -4.891851 1.946703 -0.075106 7.536830 -2.303098 -89.851735 0.453643 -8.493804 -0.898349 -1.158137 -0.981474 -0.077582 -8.135202 10.344822 -0.478052 4.246237 3.615554 -0.119212 7.066015 -5.851208 -0.232861 -0.007215 -0.111377 0.013031 9.842810 9.619132 0.699515 -5.909815 2.097198 -0.763598 -4.408921 -4.028819 1.660432 0.011165 0.119240 -0.023624
14.764086 89.116413 3.371155 177.174625 -7.783124 -0.978217 3.983297 2.870615 0.683406 2.267349 1.643151 0.422349 2.836365 2.051223 0.538130 2.267349 1.643151 0.422349 8.530578 26.545161 -1.046661 9.758313 3.849293 -3.113982 3.335590 3.797952 -1.025273 -8.087786 -4.490064 91.394735 3.194134 5.823110 1.656058 -1.472480 -4.859347 2.045210 -4.874834 1.956724 -0.083024 7.531135 -2.299007 -89.867116 0.494820 -8.498446 -0.855214 -1.141230 -0.974050 -0.084317 -8.134231 10.353434 -0.484785 4.237020 3.598881 -0.113064 7.061807 -5.844352 -0.246415 -0.006657 -0.107640 0.011967 9.837509 9.607500 0.685367 -5.913244 2.121520 -0.750284 -4.404167 -4.035441 1.657409 0.011658 0.115620 -0.026167
14.780282 89.116283 3.375244 177.184426 -7.788465 -0.982023 3.981115 2.869425 0.700514 2.267083 1.643263 0.420262 2.836024 2.051376 0.535521 2.267083 1.643263 0.420262 8.561548 26.524581 -1.037945 9.791418 3.826242 -3.111525 3.316367 3.815115 -1.022502 -8.121389 -4.476344 91.407477 3.149568 5.809487 1.619206 -1.471112 -4.860308 2.041702 -4.860192 1.967835 -0.095271 7.522457 -2.300152 -89.877178 0.534174 -8.502103 -0.814292 -1.125668 -0.963873 -0.091048 -8.133308 10.371260 -0.472937 4.226359 3.580448 -0.108120 7.060017 -5.857703 -0.261022 -0.006662 -0.084952 0.010365 9.831328 9.593802 0.688620 -5.918371 2.146662 -0.732554 -4.395580 -4.020359 1.650442 0.011113 0.091794 -0.029529
14.794848 89.115954 3.379559 177.191752 -7.794336 -0.968943 3.981758 2.869941 0.700357 2.267216 1.643631 0.418607 2.836184 2.051846 0.533455 2.267216 1.643631 0.418607 8.586992 26.504760 -1.030697 9.818519 3.803605 -3.109418 3.296075 3.834410 -1.020619 -8.159666 -4.464771 91.416794 3.114759 5.800163 1.593907 -1.470659 -4.863061 2.031859 -4.848352 1.978338 -0.107955 7.516625 -2.300698 -89.884239 0.568166 -8.502966 -0.778289 -1.112086 -0.955399 -0.094206 -8.132247 10.387534 -0.478383 4.217886 3.556601 -0.105461 7.062603 -5.847814 -0.273724 -0.005547 -0.081137 0.010023 9.823668 9.582891 0.674337 -5.926295 2.177274 -0.715473 -4.387073 -4.031053 1.645614 0.010566 0.089261 -0.032411
14.810279 89.115456 3.384275 177.199938 -7.800109 -0.956188 3.982507 2.870609 0.700138 2.267386 1.643951 0.417354 2.836391 2.052254 0.531892 2.267386 1.643951 0.417354 8.608468 26.488566 -1.024893 9.841491 3.785208 -3.107990 3.277073 3.851765 -1.019647 -8.202179 -4.448082 91.423113 3.090864 5.795751 1.576005 -1.466942 -4.866238 2.021697 -4.837116 1.987122 -0.119534 7.514282 -2.298101 -89.892152 0.594600 -8.500127 -0.746817 -1.102387 -0.951821 -0.093096 -8.130594 10.405094 -0.481708 4.211507 3.530086 -0.105155 7.063292 -5.836969 -0.285848 -0.004589 -0.077241 0.010036 9.812980 9.571370 0.662136 -5.936528 2.207714 -0.700655 -4.377996 -4.041539 1.641200 0.009369 0.087283 -0.035140
14.826398 89.114820 3.389348 177.208514 -7.805822 -0.943692 3.983670 2.871584 0.700163 2.268079 1.644524 0.416344 2.837254 2.052976 0.530635 2.268079 1.644524 0.416344 8.625058 26.476665 -1.019509 9.859035 3.771723 -3.105878 3.259575 3.861964 -1.019364 -8.244558 -4.422597 91.427964 3.073256 5.790266 1.560986 -1.455923 -4.868837 2.015765 -4.826518 1.993378 -0.130401 7.516800 -2.292181 -89.901083 0.612669 -8.491705 -0.720549 -1.096469 -0.951006 -0.088732 -8.128750 10.423492 -0.483357 4.205493 3.501764 -0.106446 7.062974 -5.825334 -0.297418 -0.003860 -0.073364 0.009960 9.802778 9.560203 0.652200 -5.948364 2.236387 -0.688148 -4.369902 -4.051726 1.638004 0.008167 0.086161 -0.038061
14.843151 89.114058 3.395187 177.217333 -7.808777 -0.931856 3.985379 2.872314 0.700419 2.269299 1.645188 0.415278 2.838775 2.053811 0.529312 2.269299 1.645188 0.415278 8.636631 26.468183 -1.014350 9.870923 3.762009 -3.102837 3.243039 3.864111 -1.020576 -8.281930 -4.390925 91.433364 3.060724 5.780100 1.549360 -1.443193 -4.870974 2.010913 -4.819014 1.995941 -0.140233 7.525481 -2.283238 -89.909689 0.624133 -8.481043 -0.701603 -1.094725 -0.950072 -0.081481 -8.128429 10.438962 -0.484380 4.199873 3.472615 -0.109204 7.070004 -5.813020 -0.307786 -0.002982 -0.069474 0.009836 9.797020 9.545863 0.645698 -5.961182 2.264409 -0.680006 -4.365047 -4.062787 1.637567 0.007084 0.086205 -0.041197
14.860319 89.113250 3.401887 177.227629 -7.807986 -0.920088 3.986350 2.872855 0.700769 2.269934 1.645635 0.414229 2.839564 2.054375 0.528007 2.269934 1.645635 0.414229 8.645418 26.462428 -1.011094 9.880133 3.755544 -3.101265 3.231303 3.860625 -1.023867 -8.314062 -4.356664 91.437954 3.052714 5.767460 1.541102 -1.433114 -4.876093 2.005691 -4.812007 1.996014 -0.149221 7.537140 -2.273441 -89.918965 0.633763 -8.473002 -0.688794 -1.100777 -0.950977 -0.074306 -8.130114 10.449177 -0.483956 4.194254 3.445940 -0.111585 7.073084 -5.801302 -0.319124 -0.002636 -0.065862 0.009699 9.794089 9.527783 0.641695 -5.972393 2.290950 -0.676463 -4.364633 -4.073738 1.638218 0.006135 0.086816 -0.042998
14.877982 89.112561 3.409034 177.236655 -7.805521 -0.909080 3.987638 2.873525 0.701384 2.270427 1.645962 0.413593 2.840178 2.054787 0.527216 2.270427 1.645962 0.413593 8.652675 26.458889 -1.008984 9.887917 3.751783 -3.100610 3.224382 3.853636 -1.027564 -8.340906 -4.322232 91.438531 3.047109 5.757056 1.535591 -1.427678 -4.883773 2.002112 -4.804159 1.995600 -0.157558 7.548814 -2.264954 -89.929172 0.644161 -8.468271 -0.679912 -1.110671 -0.954741 -0.068126 -8.130055 10.456334 -0.479472 4.187818 3.422205 -0.113605 7.064795 -5.789686 -0.333377 -0.003170 -0.063116 0.010287 9.796443 9.509745 0.639788 -5.977870 2.313438 -0.672770 -4.372010 -4.083215 1.635044 0.005550 0.087455 -0.041959
14.896156 89.112137 3.416237 177.238989 -7.803275 -0.899022 3.990983 2.874508 0.702279 2.272028 1.646601 0.413343 2.842180 2.055585 0.526914 2.272028 1.646601 0.413343 8.659171 26.456485 -1.006675 9.894805 3.749363 -3.099552 3.217414 3.844537 -1.031043 -8.360021 -4.289824 91.433637 3.044589 5.750347 1.533796 -1.428878 -4.888230 2.000826 -4.797225 1.993411 -0.166114 7.562348 -2.255466 -89.938659 0.653505 -8.466811 -0.673746 -1.117697 -0.952939 -0.063673 -8.122339 10.462220 -0.471433 4.181730 3.400521 -0.116114 7.052186 -5.777214 -0.349938 -0.003809 -0.061357 0.012073 9.808842 9.494595 0.639904 -5.978555 2.330981 -0.666492 -4.384652 -4.090667 1.626291 0.005324 0.087572 -0.038199
14.914625 89.112028 3.423457 177.233897 -7.800922 -0.889620 3.995758 2.875547 0.703759 2.274569 1.647340 0.413311 2.845358 2.056506 0.526891 2.274569 1.647340 0.413311 8.665810 26.454813 -1.004560 9.901927 3.747902 -3.098741 3.210979 3.834631 -1.034498 -8.371683 -4.259837 91.422817 3.043392 5.746268 1.534499 -1.433619 -4.888121 2.004143 -4.790870 1.989513 -0.175221 7.580512 -2.243219 -89.947790 0.661654 -8.466066 -0.669338 -1.123475 -0.942955 -0.061310 -8.107020 10.465806 -0.463180 4.177949 3.381226 -0.117420 7.044266 -5.763908 -0.367785 -0.003763 -0.060414 0.014403 9.830090 9.481588 0.641591 -5.979205 2.344671 -0.660041 -4.393594 -4.096746 1.615109 0.005146 0.087252 -0.033284
14.933569 89.112231 3.430723 177.224515 -7.798006 -0.883449 4.001727 2.876041 0.705696 2.277912 1.647607 0.413963 2.849540 2.056831 0.527723 2.277912 1.647607 0.413963 8.671537 26.454545 -1.001512 9.907803 3.748063 -3.096670 3.204892 3.825964 -1.035909 -8.374287 -4.232276 91.407099 3.041414 5.742824 1.536490 -1.439725 -4.886596 2.011118 -4.789606 1.986436 -0.181759 7.602571 -2.230555 -89.958667 0.670808 -8.460246 -0.664033 -1.128149 -0.936079 -0.059868 -8.090194 10.467511 -0.452679 4.175084 3.364037 -0.117226 7.041833 -5.749717 -0.385457 -0.003675 -0.060519 0.015479 9.854615 9.470459 0.646244 -5.983482 2.353039 -0.651125 -4.397310 -4.101732 1.600833 0.005025 0.087603 -0.028520
14.952866 89.112690 3.437997 177.212958 -7.794692 -0.880852 4.008227 2.875773 0.707738 2.281755 1.647338 0.415239 2.854349 2.056484 0.529334 2.281755 1.647338 0.415239 8.676659 26.455220 -0.996591 9.912541 3.749242 -3.092359 3.198188 3.820507 -1.034712 -8.366232 -4.209192 91.389759 3.038941 5.740441 1.538068 -1.447265 -4.885974 2.017746 -4.794094 1.983863 -0.183544 7.624940 -2.217844 -89.972520 0.680405 -8.446953 -0.654711 -1.128656 -0.935466 -0.061292 -8.075593 10.466023 -0.440159 4.171316 3.352465 -0.116231 7.048748 -5.736927 -0.401520 -0.003526 -0.061623 0.014627 9.878832 9.461947 0.653702 -5.991373 2.354498 -0.638137 -4.398951 -4.104890 1.582921 0.005015 0.088782 -0.024521
14.971938 89.113362 3.444848 177.198415 -7.793751 -0.878565 4.014241 2.875788 0.709699 2.285505 1.647291 0.416515 2.859043 2.056411 0.530944 2.285505 1.647291 0.416515 8.682148 26.455587 -0.990412 9.917385 3.750001 -3.086728 3.191351 3.818322 -1.033902 -8.348108 -4.191178 91.373636 3.036066 5.740739 1.538334 -1.453398 -4.885698 2.023955 -4.797466 1.981011 -0.183511 7.640761 -2.202283 -89.985101 0.687261 -8.430346 -0.644194 -1.126657 -0.932973 -0.066441 -8.062292 10.463391 -0.428899 4.169434 3.347649 -0.114510 7.059415 -5.726918 -0.416090 -0.003332 -0.063248 0.012531 9.903711 9.457930 0.662532 -5.997061 2.352252 -0.626301 -4.401717 -4.106573 1.567375 0.004907 0.089383 -0.022662
